HIERARCHY
ROOT hip
{
  OFFSET 0 0 0
  CHANNELS 6 Xposition Yposition Zposition Zrotation Yrotation Xrotation
  JOINT abdomen
  {
    OFFSET 0 20.6881 -0.73152
    CHANNELS 3 Zrotation Xrotation Yrotation
    JOINT chest
    {
      OFFSET 0 11.7043 -0.48768
      CHANNELS 3 Zrotation Xrotation Yrotation
      JOINT neck
      {
        OFFSET 0 22.1894 -2.19456
        CHANNELS 3 Zrotation Xrotation Yrotation
        JOINT head
        {
          OFFSET -0.24384 7.07133 1.2192
          CHANNELS 3 Zrotation Xrotation Yrotation
          JOINT leftEye
          {
            OFFSET 4.14528 8.04674 8.04672
            CHANNELS 3 Zrotation Xrotation Yrotation
            End Site
            {
              OFFSET 1 0 0
            }
          }
          JOINT rightEye
          {
            OFFSET -3.6576 8.04674 8.04672
            CHANNELS 3 Zrotation Xrotation Yrotation
            End Site
            {
              OFFSET 1 0 0
            }
          }
        }
      }
      JOINT rCollar
      {
        OFFSET -2.68224 19.2634 -4.8768
        CHANNELS 3 Zrotation Xrotation Yrotation
        JOINT rShldr
        {
          OFFSET -8.77824 -1.95073 1.46304
          CHANNELS 3 Zrotation Xrotation Yrotation
          JOINT rForeArm
          {
            OFFSET -28.1742 -1.7115 0.48768
            CHANNELS 3 Zrotation Xrotation Yrotation
            JOINT rHand
            {
              OFFSET -22.5879 0.773209 7.07136
              CHANNELS 3 Zrotation Xrotation Yrotation
              JOINT rThumb1
              {
                OFFSET -1.2192 -0.487915 3.41376
                CHANNELS 3 Zrotation Xrotation Yrotation
                JOINT rThumb2
                {
                  OFFSET -3.37035 -0.52449 3.41376
                  CHANNELS 3 Zrotation Xrotation Yrotation
                  End Site
                  {
                    OFFSET -1.78271 -1.18214 1.43049
                  }
                }
              }
              JOINT rIndex1
              {
                OFFSET -7.75947 0.938293 5.60832
                CHANNELS 3 Zrotation Xrotation Yrotation
                JOINT rIndex2
                {
                  OFFSET -2.54057 -0.884171 1.56538
                  CHANNELS 3 Zrotation Xrotation Yrotation
                  End Site
                  {
                    OFFSET -1.62519 -0.234802 1.16502
                  }
                }
              }
              JOINT rMid1
              {
                OFFSET -8.24714 1.18213 3.41376
                CHANNELS 3 Zrotation Xrotation Yrotation
                JOINT rMid2
                {
                  OFFSET -3.10165 -0.590103 1.0647
                  CHANNELS 3 Zrotation Xrotation Yrotation
                  End Site
                  {
                    OFFSET -2.48547 -0.328903 0.83742
                  }
                }
              }
              JOINT rRing1
              {
                OFFSET -8.82822 0.546677 1.51678
                CHANNELS 3 Zrotation Xrotation Yrotation
                JOINT rRing2
                {
                  OFFSET -2.60934 -0.819778 -0.0198488
                  CHANNELS 3 Zrotation Xrotation Yrotation
                  End Site
                  {
                    OFFSET -2.33842 -0.294052 0.168128
                  }
                }
              }
              JOINT rPinky1
              {
                OFFSET -8.27202 -0.0477905 -0.4584
                CHANNELS 3 Zrotation Xrotation Yrotation
                JOINT rPinky2
                {
                  OFFSET -1.82734 -0.647385 -0.700984
                  CHANNELS 3 Zrotation Xrotation Yrotation
                  End Site
                  {
                    OFFSET -1.69225 -0.51767 -0.607171
                  }
                }
              }
            }
          }
        }
      }
      JOINT lCollar
      {
        OFFSET 2.68224 19.2634 -4.8768
        CHANNELS 3 Zrotation Xrotation Yrotation
        JOINT lShldr
        {
          OFFSET 8.77824 -1.95073 1.46304
          CHANNELS 3 Zrotation Xrotation Yrotation
          JOINT lForeArm
          {
            OFFSET 28.1742 -1.7115 0.48768
            CHANNELS 3 Zrotation Xrotation Yrotation
            JOINT lHand
            {
              OFFSET 22.5879 0.773209 7.07136
              CHANNELS 3 Zrotation Xrotation Yrotation
              JOINT lThumb1
              {
                OFFSET 1.2192 -0.487915 3.41376
                CHANNELS 3 Zrotation Xrotation Yrotation
                JOINT lThumb2
                {
                  OFFSET 3.37035 -0.52449 3.41376
                  CHANNELS 3 Zrotation Xrotation Yrotation
                  End Site
                  {
                    OFFSET 1.78271 -1.18214 1.43049
                  }
                }
              }
              JOINT lIndex1
              {
                OFFSET 7.75947 0.938293 5.60832
                CHANNELS 3 Zrotation Xrotation Yrotation
                JOINT lIndex2
                {
                  OFFSET 2.54057 -0.884171 1.56538
                  CHANNELS 3 Zrotation Xrotation Yrotation
                  End Site
                  {
                    OFFSET 1.62519 -0.234802 1.16502
                  }
                }
              }
              JOINT lMid1
              {
                OFFSET 8.24714 1.18213 3.41376
                CHANNELS 3 Zrotation Xrotation Yrotation
                JOINT lMid2
                {
                  OFFSET 3.10165 -0.590103 1.0647
                  CHANNELS 3 Zrotation Xrotation Yrotation
                  End Site
                  {
                    OFFSET 2.48547 -0.328903 0.83742
                  }
                }
              }
              JOINT lRing1
              {
                OFFSET 8.82822 0.546677 1.51678
                CHANNELS 3 Zrotation Xrotation Yrotation
                JOINT lRing2
                {
                  OFFSET 2.60934 -0.819778 -0.0198488
                  CHANNELS 3 Zrotation Xrotation Yrotation
                  End Site
                  {
                    OFFSET 2.33842 -0.294052 0.168128
                  }
                }
              }
              JOINT lPinky1
              {
                OFFSET 8.27202 -0.0477905 -0.4584
                CHANNELS 3 Zrotation Xrotation Yrotation
                JOINT lPinky2
                {
                  OFFSET 1.82734 -0.647385 -0.700984
                  CHANNELS 3 Zrotation Xrotation Yrotation
                  End Site
                  {
                    OFFSET 1.69225 -0.51767 -0.607171
                  }
                }
              }
            }
          }
        }
      }
    }
  }
  JOINT rButtock
  {
    OFFSET -8.77824 4.35084 1.2192
    CHANNELS 3 Zrotation Xrotation Yrotation
    JOINT rThigh
    {
      OFFSET 0 -1.70687 -2.19456
      CHANNELS 3 Zrotation Xrotation Yrotation
      JOINT rShin
      {
        OFFSET 0 -36.8199 0.73152
        CHANNELS 3 Zrotation Xrotation Yrotation
        JOINT rFoot
        {
          OFFSET 0.73152 -45.1104 -5.12064
          CHANNELS 3 Zrotation Xrotation Yrotation
          End Site
          {
            OFFSET -1.1221 -3.69964 12.103
          }
        }
      }
    }
  }
  JOINT lButtock
  {
    OFFSET 8.77824 4.35084 1.2192
    CHANNELS 3 Zrotation Xrotation Yrotation
    JOINT lThigh
    {
      OFFSET 0 -1.70687 -2.19456
      CHANNELS 3 Zrotation Xrotation Yrotation
      JOINT lShin
      {
        OFFSET 0 -36.8199 0.73152
        CHANNELS 3 Zrotation Xrotation Yrotation
        JOINT lFoot
        {
          OFFSET -0.73152 -45.1104 -5.12064
          CHANNELS 3 Zrotation Xrotation Yrotation
          End Site
          {
            OFFSET 1.1221 -3.69964 12.103
          }
        }
      }
    }
  }
}
MOTION
Frames:	4
Frame Time:	0.03333
-0.004755549641982792 21.8190922375718 0.004153943961871224 -163.91299438476562 77.39570617675781 -155.76499938964844 -2.4150495529174805 15.55889892578125 16.337799072265625 -4.751209735870361 -13.969301223754883 3.7303998470306396 1.0771498680114746 14.759598731994629 12.482800483703613 0.0010096231708303094 -22.107099533081055 24.619897842407227 -0.0 0.0 -0.0 -0.0 0.0 -0.0 -6.559893416229617e-14 -5.514286401629709e-13 -2.862499056148146e-14 12.367298126220703 63.66610336303711 47.841796875 -27.175498962402344 -43.527099609375 90.51219177246094 -0.09163346886634827 8.604410171508789 1.2185298204421997 1.7346100111836904e-09 -3.7847595280027235e-08 -3.1514810761024137e-09 2.9852398331087215e-09 -6.544780006834117e-08 -5.461660901318055e-09 1.7346100111836904e-09 -3.784749935675791e-08 -3.1514810761024137e-09 7.7309088706970215 5.474880218505859 0.41731396317481995 1.7345996861095614e-09 -3.7847595280027235e-08 -3.1514810761024137e-09 2.9055399894714355 0.9651829600334167 0.10290198773145676 1.7346100111836904e-09 -3.784749935675791e-08 -3.1514810761024137e-09 10.27859878540039 0.73180091381073 0.025912299752235413 1.7345996861095614e-09 -3.7847595280027235e-08 -3.151471528184402e-09 2.2216696739196777 -0.7334870100021362 -0.2089199721813202 -6.599650432268303e-14 -5.514286401629709e-13 -2.862499056148146e-14 -55.06119918823242 7.636629104614258 -20.108596801757812 27.173200607299805 -43.53399658203125 -90.52559661865234 2.6362898349761963 -41.05939483642578 7.032189846038818 2.2608499516962866e-09 -3.6505887202054055e-10 1.3103185203533485e-09 3.867489883901953e-09 -5.1870191475345e-10 2.322218195516257e-09 2.2608295235926334e-09 -3.6506403455760505e-10 1.3103311768958292e-09 -7.7309088706970215 5.474880218505859 -0.41731396317481995 2.260839959689065e-09 -3.6505887202054055e-10 1.3103311768958292e-09 -2.9055399894714355 0.9651829600334167 -0.10290198773145676 2.260839959689065e-09 -3.650660329590494e-10 1.3103185203533485e-09 -10.27859878540039 0.73180091381073 -0.025912299752235413 2.2608499516962866e-09 -3.650501290142216e-10 1.3103089724353367e-09 -2.2216696739196777 -0.7334870100021362 0.2089199721813202 -3.975693133539092e-16 0.0 -0.0 -85.96549224853516 -34.64079666137695 -65.43810272216797 -175.97898864746094 74.1272964477539 178.67999267578125 -1.6238797903060913 -24.358200073242188 -4.776849269866943 3.975693133539092e-16 0.0 -0.0 114.24198913574219 -48.21009826660156 92.78489685058594 174.958984375 73.49330139160156 -174.86399841308594 -12.852800369262695 -20.41109848022461 -20.002798080444336
-0.014954198512865405 21.760880242823074 0.00405654113759628 -163.39599609375 77.3042984008789 -155.26498413085938 -2.160290002822876 15.724201202392578 16.264400482177734 -4.827879428863525 -14.049500465393066 3.7023298740386963 1.0473202466964722 14.739398956298828 12.505300521850586 -0.006310650613158941 -22.173500061035156 24.663198471069336 -0.0 0.0 -0.0 -0.0 0.0 -0.0 8.18992768568394e-14 -4.8503457923242815e-14 2.0673604972029636e-13 12.087294578552246 63.62019729614258 48.0182991027832 -27.171396255493164 -43.53900146484375 90.53529357910156 -0.08603229373693466 8.339719772338867 1.180499792098999 2.5660698010909755e-09 -4.2905398345283174e-08 -3.0705296083510802e-09 4.421649713037823e-09 -7.423369652315159e-08 -5.327629004625578e-09 2.566079793098197e-09 -4.290529886930017e-08 -3.0705200604330685e-09 7.7309088706970215 5.474880218505859 0.41731396317481995 2.5660698010909755e-09 -4.290529886930017e-08 -3.0705200604330685e-09 2.9055399894714355 0.9651829600334167 0.10290198773145676 2.566079793098197e-09 -4.290529886930017e-08 -3.0705200604330685e-09 10.27859878540039 0.73180091381073 0.025912299752235413 2.5660698010909755e-09 -4.2905398345283174e-08 -3.0705200604330685e-09 2.2216696739196777 -0.7334870100021362 -0.2089199721813202 8.18992768568394e-14 -4.8503457923242815e-14 2.0673604972029636e-13 -55.197898864746094 7.625909328460693 -19.93889808654785 27.164897918701172 -43.55780029296875 -90.57239532470703 2.6406807899475098 -41.086395263671875 7.038909435272217 1.7196999380075795e-09 -3.6384986690229937e-10 9.859114635801802e-10 2.9490498931750153e-09 -5.653399970384498e-10 1.7375210159542576e-09 1.7196896129334505e-09 -3.638570278408082e-10 9.859242311449634e-10 -7.7309088706970215 5.474880218505859 -0.41731396317481995 1.7196999380075795e-09 -3.6385305879349517e-10 9.859146832269516e-10 -2.9055399894714355 0.9651829600334167 -0.10290198773145676 1.7196896129334505e-09 -3.638550294393639e-10 9.859114635801802e-10 -10.27859878540039 0.73180091381073 -0.025912299752235413 1.7196999380075795e-09 -3.6384312229742477e-10 9.859082439334088e-10 -2.2216696739196777 -0.7334870100021362 0.2089199721813202 -3.975693133539092e-16 0.0 -0.0 -85.95790100097656 -34.65899658203125 -65.44609832763672 -176.00099182128906 74.02278900146484 178.7109832763672 -1.5448696613311768 -24.360599517822266 -4.653748989105225 3.975693133539092e-16 0.0 -0.0 114.71397399902344 -48.16929626464844 93.03709411621094 174.9949951171875 73.32849884033203 -174.89598083496094 -12.864497184753418 -20.491701126098633 -19.950796127319336
-0.02733008690855528 21.71275131483658 0.004079459449669339 -162.99099731445312 77.27320098876953 -154.8319854736328 -1.9214599132537842 15.84489917755127 16.24289894104004 -4.899150371551514 -14.114099502563477 3.6913299560546875 1.0134398937225342 14.7308988571167 12.517398834228516 0.012237726710736752 -22.26470184326172 24.691299438476562 -0.0 0.0 -0.0 -0.0 0.0 -0.0 9.859718971176948e-14 6.71892148038436e-14 1.5584717761099598e-13 11.953102111816406 63.57740020751953 48.067596435546875 -27.168298721313477 -43.54800033569336 90.55309295654297 -0.08474919945001602 8.275799751281738 1.1713298559188843 1.9378298965477825e-09 -3.2694099871832805e-08 -2.3523507586276082e-09 3.340109744343067e-09 -5.657189916519201e-08 -4.081150972723435e-09 1.9378298965477825e-09 -3.2694099871832805e-08 -2.3523507586276082e-09 7.7309088706970215 5.474880218505859 0.41731396317481995 1.9378298965477825e-09 -3.2694099871832805e-08 -2.3523507586276082e-09 2.9055399894714355 0.9651829600334167 0.10290198773145676 1.937839888555004e-09 -3.2694099871832805e-08 -2.3523507586276082e-09 10.27859878540039 0.73180091381073 0.025912299752235413 1.9378298965477825e-09 -3.269419934781581e-08 -2.3523507586276082e-09 2.2216696739196777 -0.7334870100021362 -0.2089199721813202 9.859718971176948e-14 6.71892148038436e-14 1.5584717761099598e-13 -55.33349609375 7.647989273071289 -19.769197463989258 27.161298751831055 -43.5681037902832 -90.59249877929688 2.6230993270874023 -40.97929763793945 7.012209415435791 1.5189799418280359e-09 -3.583419394548315e-10 8.350323210670751e-10 2.6049198353916836e-09 -5.602057706610708e-10 1.4746609489080242e-09 1.5189799418280359e-09 -3.5834590850214454e-10 8.350418689850869e-10 -7.7309088706970215 5.474880218505859 -0.41731396317481995 1.5189799418280359e-09 -3.583419394548315e-10 8.350323210670751e-10 -2.9055399894714355 0.9651829600334167 -0.10290198773145676 1.5189799418280359e-09 -3.58343132944583e-10 8.350323210670751e-10 -10.27859878540039 0.73180091381073 -0.025912299752235413 1.5189899338352575e-09 -3.583351948499569e-10 8.35029156931455e-10 -2.2216696739196777 -0.7334870100021362 0.2089199721813202 -3.975693133539092e-16 0.0 -0.0 -85.88229370117188 -34.74409866333008 -65.423095703125 -176.02499389648438 73.96699523925781 178.76199340820312 -1.6511598825454712 -24.327497482299805 -4.850249767303467 3.975693133539092e-16 0.0 -0.0 115.13597106933594 -48.11320495605469 93.26449584960938 175.02598571777344 73.19000244140625 -174.9239959716797 -12.870599746704102 -20.522798538208008 -19.92409896850586
-0.0377579189750769 21.679978359651567 0.0027960340126607156 -162.46299743652344 77.2461929321289 -154.25198364257812 -1.6989494562149048 15.921198844909668 16.273197174072266 -4.964970111846924 -14.163100242614746 3.6974000930786133 0.9755051732063293 14.733899116516113 12.518998146057129 0.056613754481077194 -22.380800247192383 24.704299926757812 -0.0 0.0 -0.0 -0.0 0.0 -0.0 -1.510763390744855e-14 -2.0435062875797522e-13 -1.8129161366564617e-13 11.96399974822998 63.53769302368164 47.99029541015625 -27.16609764099121 -43.55430221557617 90.56549835205078 -0.0875890925526619 8.412650108337402 1.1909798383712769 -1.5012018017568352e-10 -7.213949437812062e-09 -9.969542968946143e-10 -2.593710524134707e-10 -1.2462699316984072e-08 -1.7222098191993496e-09 -1.5011779319618057e-10 -7.213949437812062e-09 -9.969511882701454e-10 7.7309088706970215 5.474880218505859 0.41731396317481995 -1.5012018017568352e-10 -7.213949437812062e-09 -9.969542968946143e-10 2.9055399894714355 0.9651829600334167 0.10290198773145676 -1.5011103471351817e-10 -7.213959651863888e-09 -9.969511882701454e-10 10.27859878540039 0.73180091381073 0.025912299752235413 -1.5012098508737637e-10 -7.213959651863888e-09 -9.96947968623374e-10 2.2216696739196777 -0.7334870100021362 -0.2089199721813202 -1.510763390744855e-14 -2.0435062875797522e-13 -1.8129161366564617e-13 -55.46819305419922 7.702970027923584 -19.59929847717285 27.162397384643555 -43.564697265625 -90.58589935302734 2.5840392112731934 -40.73809814453125 6.952498912811279 1.6587001772094823e-09 -3.4853508967813696e-10 8.57681037302882e-10 2.835099710551958e-09 -5.032981253982882e-10 1.533628446459545e-09 1.6586897411130508e-09 -3.4852992714107245e-10 8.576905852208938e-10 -7.7309088706970215 5.474880218505859 -0.41731396317481995 1.6586897411130508e-09 -3.485259580937594e-10 8.57681037302882e-10 -2.9055399894714355 0.9651829600334167 -0.10290198773145676 1.6586897411130508e-09 -3.4852992714107245e-10 8.576842569496534e-10 -10.27859878540039 0.73180091381073 -0.025912299752235413 1.6587001772094823e-09 -3.4852515318206656e-10 8.576714893848703e-10 -2.2216696739196777 -0.7334870100021362 0.2089199721813202 -3.975693133539092e-16 0.0 -0.0 -85.73849487304688 -34.89630126953125 -65.36939239501953 -176.04998779296875 73.95999908447266 178.83299255371094 -1.9418296813964844 -24.25769805908203 -5.365930080413818 3.975693133539092e-16 0.0 -0.0 115.50800323486328 -48.04229736328125 93.466796875 175.04998779296875 73.07789611816406 -174.94898986816406 -12.871399879455566 -20.504497528076172 -19.922597885131836
